<?xml version="1.0" encoding="utf-8"?>
<!-- Generator: Adobe Illustrator 19.1.0, SVG Export Plug-In . SVG Version: 6.00 Build 0)  -->
<!DOCTYPE svg PUBLIC "-//W3C//DTD SVG 1.0//EN" "http://www.w3.org/TR/2001/REC-SVG-20010904/DTD/svg10.dtd">
<svg version="1.0" id="Layer_1" xmlns="http://www.w3.org/2000/svg" xmlns:xlink="http://www.w3.org/1999/xlink" x="0px" y="0px"
	 viewBox="0 0 100 100" enable-background="new 0 0 100 100" xml:space="preserve">
<g>
	<path fill-rule="evenodd" clip-rule="evenodd" fill="#231F20" d="M90.4,61c-0.3-0.9-1.3-1.4-2.2-1.1c-10.2,3.5-17.5,4.9-23.3,5
		l0-10L76,59.3c0.2,0.1,0.4,0.1,0.7,0.1c0.7,0,1.3-0.4,1.6-1.1c0.4-0.9-0.1-1.9-1-2.3l-12.3-5l0-5.6l9.6,3.8c0.9,0.4,1.9-0.1,2.3-1
		c0.4-0.9-0.1-1.9-1-2.3L65,41.7l0-5.5l8.4,3.6c0.9,0.4,1.9,0,2.3-0.9c0.4-0.9,0-1.9-0.9-2.3L65,32.5l0-4l5.5,2.6
		c0.9,0.4,1.9,0,2.3-0.8c0.4-0.9,0-1.9-0.8-2.3l-7-3.3l0-3.3l2.1,1c0.9,0.4,1.9,0,2.3-0.8c0.4-0.9,0-1.9-0.8-2.3L64.1,17
		c0,0,0,0,0,0c-0.1-0.1-0.2-0.1-0.4-0.1c0,0,0,0,0,0c-0.1,0-0.2,0-0.3,0h0c0,0,0,0,0,0c0,0-0.1,0-0.1,0c-0.1,0-0.2,0-0.3,0
		c0,0-0.1,0-0.1,0c-0.1,0-0.2,0.1-0.3,0.1c0,0,0,0-0.1,0l-6,3.5c-0.8,0.5-1.1,1.6-0.6,2.4c0.3,0.6,0.9,0.9,1.5,0.9
		c0.3,0,0.6-0.1,0.9-0.2l3.3-1.9l0,3.1l-7.6,4.4c-0.8,0.5-1.1,1.6-0.6,2.4c0.3,0.6,0.9,0.9,1.5,0.9c0.3,0,0.6-0.1,0.9-0.2l5.9-3.4
		l0,4l-9,5.8l-6.1-5.3c-0.6-0.5-1.6-0.6-2.2,0l-8.7,6.9l-3.8-4.4c-0.6-0.7-1.6-0.8-2.3-0.3l-10.1,7.1c-0.8,0.6-1,1.6-0.4,2.4
		c0.3,0.5,0.9,0.7,1.4,0.7c0.3,0,0.7-0.1,1-0.3l8.8-6.2l2.7,3.1l-5.8,4.6c-0.8,0.6-0.9,1.7-0.3,2.5C27,49.8,27.5,50,28,50
		c0.4,0,0.8-0.1,1.1-0.4l16.1-12.8l4.3,3.7l-3,2c-0.8,0.5-1,1.6-0.5,2.4c0.3,0.5,0.9,0.8,1.5,0.8c0.3,0,0.7-0.1,0.9-0.3l13.1-8.5
		l0,5.2l-13,8.8c-0.8,0.5-1,1.6-0.5,2.4c0.3,0.5,0.9,0.8,1.5,0.8c0.3,0,0.7-0.1,1-0.3l11.1-7.4l0,5.1l-5.8,3.6
		c-0.8,0.5-1.1,1.6-0.6,2.4c0.5,0.8,1.6,1.1,2.4,0.6l3.9-2.4l0,9.1c-5.8-0.5-10.1-2.4-14.7-4.4c-7.4-3.2-15.8-6.9-31.9-5.5
		c-1,0.1-1.7,0.9-1.6,1.9c0.1,1,0.9,1.7,1.9,1.6c15.3-1.3,22.9,2,30.2,5.2c5.6,2.5,11,4.8,19.2,4.8c6.2,0,14.1-1.4,24.9-5.1
		C90.2,62.9,90.7,61.9,90.4,61"/>
	<path fill-rule="evenodd" clip-rule="evenodd" fill="#231F20" d="M80.7,72.7c-17.2,4.8-23.9,2.1-31.1-0.7
		c-4.2-1.7-8.6-3.4-15.1-3.9c-1-0.1-1.8,0.7-1.9,1.6c-0.1,1,0.7,1.8,1.6,1.9c6,0.4,10.1,2,14.1,3.6c4.5,1.8,9.1,3.6,16.1,3.6
		c4.5,0,10.1-0.8,17.2-2.8c0.9-0.3,1.5-1.2,1.2-2.2C82.6,73,81.6,72.4,80.7,72.7"/>
	<path fill-rule="evenodd" clip-rule="evenodd" fill="#231F20" d="M76.1,83.9c-13.9,4.4-23.6,1.1-33.8-2.4
		c-9.2-3.2-18.7-6.5-31.5-3.9c-0.9,0.2-1.6,1.1-1.4,2.1c0.2,0.9,1.1,1.6,2.1,1.4c11.8-2.4,20.5,0.6,29.6,3.8
		c6.8,2.3,13.7,4.7,21.9,4.7c4.3,0,8.9-0.6,14-2.3c0.9-0.3,1.4-1.3,1.1-2.2C78,84.1,77,83.6,76.1,83.9"/>
	<path fill-rule="evenodd" clip-rule="evenodd" fill="#231F20" d="M34.7,14c1.7,0,3.2,1.4,3.2,3.2c0,1.7-1.4,3.2-3.2,3.2
		c-1.7,0-3.2-1.4-3.2-3.2C31.5,15.4,32.9,14,34.7,14z M34.7,23.8c3.7,0,6.7-3,6.7-6.7c0-3.7-3-6.7-6.7-6.7c-3.7,0-6.7,3-6.7,6.7
		C28,20.8,31,23.8,34.7,23.8z"/>
</g>
</svg>
