<?xml version="1.0" encoding="utf-8"?>
<!-- Generator: Adobe Illustrator 19.1.0, SVG Export Plug-In . SVG Version: 6.00 Build 0)  -->
<!DOCTYPE svg PUBLIC "-//W3C//DTD SVG 1.0//EN" "http://www.w3.org/TR/2001/REC-SVG-20010904/DTD/svg10.dtd">
<svg version="1.0" id="Layer_1" xmlns="http://www.w3.org/2000/svg" xmlns:xlink="http://www.w3.org/1999/xlink" x="0px" y="0px"
	 viewBox="0 0 100 100" enable-background="new 0 0 100 100" xml:space="preserve">
<g>
	<path d="M63.7,83.5H24.1c-1.7,0-3-1.4-3-3v-5.7c0.9,0.5,1.5,1.5,1.5,2.6c0,0.8,0.7,1.5,1.5,1.5c0.8,0,1.5-0.7,1.5-1.5
		c0-2.8-1.9-5.2-4.6-5.9v-5.9c0.9,0.5,1.5,1.5,1.5,2.6c0,0.8,0.7,1.5,1.5,1.5c0.8,0,1.5-0.7,1.5-1.5c0-2.8-1.9-5.2-4.6-5.9v-5.9
		c0.9,0.5,1.5,1.5,1.5,2.6c0,0.8,0.7,1.5,1.5,1.5c0.8,0,1.5-0.7,1.5-1.5c0-2.8-1.9-5.2-4.6-5.9v-5.9c0.9,0.5,1.5,1.5,1.5,2.6
		c0,0.8,0.7,1.5,1.5,1.5c0.8,0,1.5-0.7,1.5-1.5c0-2.8-1.9-5.2-4.6-5.9v-5.9c0.9,0.5,1.5,1.5,1.5,2.6c0,0.8,0.7,1.5,1.5,1.5
		c0.8,0,1.5-0.7,1.5-1.5c0-2.8-1.9-5.2-4.6-5.9v-5.9c0.9,0.5,1.5,1.5,1.5,2.6c0,0.8,0.7,1.5,1.5,1.5c0.8,0,1.5-0.7,1.5-1.5
		c0-2.8-1.9-5.2-4.6-5.9V20c0.9,0.5,1.5,1.5,1.5,2.6c0,0.8,0.7,1.5,1.5,1.5c0.8,0,1.5-0.7,1.5-1.5c0-2.4-1.4-4.4-3.4-5.4
		c0.5-0.4,1.2-0.7,1.9-0.7h39.5c1.7,0,3,1.4,3,3v60.8C66.7,82.1,65.4,83.5,63.7,83.5z M16.5,77.4c0-1.1,0.6-2.1,1.5-2.6V80
		C17.2,79.5,16.5,78.5,16.5,77.4z M18.1,20v5.2c-0.9-0.5-1.5-1.5-1.5-2.6C16.5,21.5,17.2,20.5,18.1,20z M18.1,34.4
		c-0.9-0.5-1.5-1.5-1.5-2.6s0.6-2.1,1.5-2.6V34.4z M18.1,43.5c-0.9-0.5-1.5-1.5-1.5-2.6s0.6-2.1,1.5-2.6V43.5z M18.1,52.6
		c-0.9-0.5-1.5-1.5-1.5-2.6s0.6-2.1,1.5-2.6V52.6z M18.1,61.7c-0.9-0.5-1.5-1.5-1.5-2.6s0.6-2.1,1.5-2.6V61.7z M18.1,70.9
		c-0.9-0.5-1.5-1.5-1.5-2.6s0.6-2.1,1.5-2.6V70.9z M63.7,13.5H24.1c-2.3,0-4.2,1.3-5.3,3.1c-3,0.4-5.4,2.9-5.4,6
		c0,1.8,0.8,3.4,2.1,4.6c-1.3,1.1-2.1,2.7-2.1,4.6s0.8,3.4,2.1,4.6c-1.3,1.1-2.1,2.7-2.1,4.6s0.8,3.4,2.1,4.6
		c-1.3,1.1-2.1,2.7-2.1,4.6s0.8,3.4,2.1,4.6c-1.3,1.1-2.1,2.7-2.1,4.6s0.8,3.4,2.1,4.6c-1.3,1.1-2.1,2.7-2.1,4.6s0.8,3.4,2.1,4.6
		c-1.3,1.1-2.1,2.7-2.1,4.6c0,3.1,2.4,5.7,5.4,6c1,1.8,3,3.1,5.3,3.1h39.5c3.4,0,6.1-2.7,6.1-6.1V19.6C69.8,16.2,67,13.5,63.7,13.5z
		"/>
	<path d="M51.9,62.7c1.6-2.3,2.6-5.2,2.8-8.7C55.2,45,50.6,35,46,30.2c-0.6-0.6-1.5-0.6-2.2-0.1c-0.6,0.6-0.6,1.5-0.1,2.2
		c4.2,4.4,8.2,13.7,7.8,21.6c-0.2,3.1-1.1,5.7-2.6,7.6c-0.1-0.2-0.2-0.4-0.2-0.6c-0.4-0.9-0.7-1.8-0.8-2.7l-3,0.4
		c0.2,1.3,0.6,2.3,1,3.4c0.3,0.8,0.7,1.6,0.8,2.4l0.2,1.2l1.2,0.1c1,0.1,2,0.1,3,0.1c1.4,0,2.8-0.1,4.2-0.3l-0.6-3
		C53.9,62.6,52.9,62.7,51.9,62.7z"/>
	<path d="M30.6,31.8c0.1,0,0.3,0,0.4-0.1c1.1-0.3,2-1.1,2.8-1.8c0.1-0.1,0.1-0.1,0.2-0.2c0.8,1.3,1.6,2.4,2.3,3.3
		c0.3,0.4,0.7,0.6,1.2,0.6c0.3,0,0.7-0.1,0.9-0.3c0.7-0.5,0.8-1.5,0.3-2.1c-0.7-0.9-1.5-2-2.2-3.2c0,0,0.1-0.1,0.1-0.1
		c1.3-1,2.7-2,4-2.5c0.8-0.3,1.1-1.2,0.8-2c-0.3-0.8-1.2-1.1-2-0.8c-1.5,0.7-3,1.7-4.4,2.8c-0.5-1-1-2-1.3-2.9
		c-0.3-0.8-1.2-1.2-2-0.9c-0.8,0.3-1.2,1.2-0.9,2c0.5,1.2,1,2.4,1.7,3.6c-0.2,0.2-0.4,0.3-0.6,0.5c-0.5,0.4-1.2,1-1.6,1.1
		c-0.8,0.2-1.3,1-1.1,1.9C29.3,31.3,29.9,31.8,30.6,31.8z"/>
	<path d="M42,76.4c-0.5,0.7-1.2,1-2.5,1c-0.6,0-1.2-0.1-1.7-0.1c-0.5,0-1-0.1-1.5-0.1c-1.2,0-2-0.4-3-1.2c-1.9-1.6-1.7-5.1-0.6-7.6
		c0.4-0.8,1.4-1,3-1.2l0.5-0.1c0.6-0.1,1.2-0.2,1.7-0.2c0.1,0,0.2,0,0.4,0c0.3,0,0.5,0.1,0.9,0.3c0.5,0.2,1.1,0.5,1.7,0.5
		c1,0.2,1.3,0.6,1.8,1.6C43.5,71.5,43.3,74.6,42,76.4z M41.2,64.8c-0.3,0-0.5-0.1-0.9-0.3c-0.5-0.2-1.1-0.5-1.9-0.6
		c-0.9-0.1-1.8,0-2.7,0.2l-0.5,0.1c-1.8,0.2-4.2,0.5-5.4,2.9c-1.6,3.4-1.9,8.4,1.3,11.2c1.5,1.3,3,1.9,4.8,2c0.4,0,0.9,0.1,1.4,0.1
		c0.7,0.1,1.4,0.1,2,0.1c1.4,0,3.5-0.2,5-2.2c2-2.7,2.4-6.9,0.9-10.1C44.9,67.2,44,65.3,41.2,64.8z"/>
	<path d="M84.2,27.9c0-0.4-0.3-0.8-0.8-0.8c-0.4,0-0.8,0.3-0.8,0.8l-2.3,9.9v45.6c0,1.7,1.4,3,3,3c1.7,0,3-1.4,3-3V37.8L84.2,27.9z"
		/>
</g>
</svg>
