<?xml version="1.0" encoding="utf-8"?>
<!-- Generator: Adobe Illustrator 19.1.0, SVG Export Plug-In . SVG Version: 6.00 Build 0)  -->
<!DOCTYPE svg PUBLIC "-//W3C//DTD SVG 1.0//EN" "http://www.w3.org/TR/2001/REC-SVG-20010904/DTD/svg10.dtd">
<svg version="1.0" id="Layer_1" xmlns="http://www.w3.org/2000/svg" xmlns:xlink="http://www.w3.org/1999/xlink" x="0px" y="0px"
	 viewBox="0 0 100 100" enable-background="new 0 0 100 100" xml:space="preserve">
<g>
	<g>
		<path d="M43.3,37.2l0-0.6c-0.1-1.1,0.3-2.3,1.3-3.6c0.8-1,1.4-1.7,1.4-2.6c0-0.9-0.6-1.5-1.8-1.5c-0.8,0-1.6,0.2-2.2,0.7l-0.7-1.9
			c0.8-0.5,2-0.9,3.4-0.9c2.7,0,3.9,1.6,3.9,3.3c0,1.6-1,2.7-1.9,3.7c-0.8,1-1.2,1.9-1.2,2.9l0,0.5H43.3z M42.7,40.3
			c0-1,0.7-1.7,1.7-1.7c1,0,1.6,0.7,1.7,1.7c0,1-0.7,1.7-1.7,1.7C43.4,42,42.7,41.2,42.7,40.3z"/>
	</g>
	<g>
		<path d="M85.9,58.5c0-1.2-1.1-2.5-3-4.5h0c-0.9-0.9-3.8-5.6-3.8-6.6c0-0.5,0.1-0.9,0.3-1.5c0.2-0.9,0.6-2.2,0.6-4.4
			c0-5.2-3.4-18.7-13.4-25.1c-5.2-3.3-13.6-5.3-22.1-5.3c-3.3,0-14.8,0.6-22.3,8.1c-6.4,6.4-8.1,18.1-8.1,24
			c0,6.6,4.6,15.5,7.1,18.8c2.3,3,3.1,4.6,3.1,5.9c0,5.3-1.6,12.8-4.1,19c-0.2,0.4-0.2,0.8,0,1.2c0.2,0.4,0.5,0.7,0.8,0.8
			c0.7,0.3,1.7-0.1,2-0.8c2.7-6.6,4.4-14.3,4.4-20.1c0-2.1-0.9-4-3.7-7.7c-2.7-3.5-6.5-11.6-6.5-16.9c0-5.4,1.5-16.2,7.2-21.8
			c6.7-6.7,17.1-7.2,20.2-7.2c7.8,0,15.8,1.9,20.4,4.9c8.5,5.4,12,17.3,12,22.5c0,1.8-0.3,2.8-0.5,3.7c-0.2,0.7-0.4,1.4-0.4,2.3
			c0,2.4,3.9,7.9,4.7,8.7c1.6,1.6,2,2.2,2.1,2.4c0,0.4-0.4,0.7-1.9,1.4c-0.9,0.4-2,0.9-2.8,1.7c-0.4,0.4-0.6,1.1-0.3,1.6l1.3,3.2
			c-0.5,0.3-1.1,0.6-1.6,0.6c-0.7,0-1.3,0.5-1.5,1.2c-0.2,0.7,0.2,1.4,0.8,1.7c0.2,0.1,0.4,0.2,0.5,0.4c-1.4,0.9-2.2,2-2.2,3.3
			c0,1.3,0.4,2.2,0.6,2.9c0.1,0.1,0.2,0.5,0.2,0.5c0,0.1-0.3,3.6-6.1,3.6c-10.3,0-17.7-5.6-17.7-5.6c-0.7-0.5-1.6-0.4-2.1,0.3
			c-0.5,0.7-0.4,1.6,0.3,2.1c0,0,2.2,1.7,6,3.4c-1.5,3.7-2.2,6-2.2,6c-0.3,0.8,0.2,1.7,0.9,1.9c0.2,0.1,0.3,0.1,0.5,0.1
			c0.7,0,1.2-0.4,1.4-1c0,0,0.7-2.2,2.2-5.9c3.6,1.2,7.2,1.8,10.8,1.8c7.5,0,9.2-4.8,9.2-6.6c0-0.7-0.2-1.2-0.4-1.7
			c-0.2-0.5-0.4-1-0.4-1.7c0-0.3,0.8-0.9,1.5-1.1c0.6-0.2,1-0.8,1-1.4c0-0.1,0-0.9-0.5-1.9c0.9-0.5,1.6-1.2,1.7-1.3
			c0.4-0.4,0.6-1.1,0.3-1.6l-1.3-3.2c0.3-0.2,0.7-0.4,1.1-0.6C83.7,62.1,85.9,61.1,85.9,58.5z"/>
		<path d="M57,47.9c3.3,1,6.8,0.6,9.5-0.9c3.4-1.9,5.5-5.7,5.2-9.4c-0.2-3.4-2.6-6.4-5.6-7.6c0.1-1.7-0.6-3.8-1.6-5.4
			c-2.3-3.7-5.9-5.5-9.8-4.9c-2.2-2.1-5.2-3.2-8.3-3.2c-3,0.1-5.9,1.3-7.9,3.4c-2.8-0.8-6.3,0-9.3,2.3c-2.9,2.2-4.5,5.1-4.4,7.9
			c-2.1,1.1-3.6,3.8-3.9,7.1c-0.3,3.4,0.6,7.5,3.5,9.2c0.5,2.1,1.6,4.6,3.3,5.8c2,1.5,4.6,2.2,7.4,2.2c3,0,6.1-0.9,8.5-2.6
			c3.7,0.9,7.7,1.1,11.8-2.4C55.9,49,56.5,48.5,57,47.9z M53.4,47.5c-2.8,2.4-5.5,2.8-9.9,1.6c-0.4-0.1-0.9,0-1.3,0.3
			c-3.6,2.9-9.6,3.3-13,0.7c-1.1-0.8-2-3.1-2.3-4.7c-0.1-0.5-0.4-0.9-0.8-1.1c-2.1-0.9-2.8-4.1-2.5-6.7c0.2-2.2,1.2-4.6,2.9-5.1
			c0,0,0,0,0.1,0l0.1,0c0.8-0.2,1.2-0.9,1-1.7c0-0.2-0.1-0.3-0.2-0.4c-0.1-2.3,1.6-4.5,3.3-5.8c2.5-1.9,5.4-2.5,7.4-1.6
			c0.6,0.3,1.3,0.1,1.7-0.4c1.6-1.9,4-3.1,6.5-3.2c2.5-0.1,5,1,6.7,2.8c0.3,0.4,0.9,0.5,1.3,0.4c3.8-0.8,6.1,1.4,7.2,2.9
			c1.5,2.1,1.7,4.2,1.5,4.6c-0.3,0.4-0.4,0.9-0.2,1.4c0.2,0.5,0.6,0.8,1.1,0.9c2.4,0.3,4.6,2.7,4.8,5.3c0.2,2.6-1.4,5.3-3.8,6.7
			c-2.3,1.3-5.4,1.5-8.2,0.4c-0.7-0.3-1.4,0-1.8,0.7C55,45.9,54.4,46.6,53.4,47.5z"/>
	</g>
</g>
</svg>
