<svg width="512" height="512" xmlns="http://www.w3.org/2000/svg">
  <path id="svg_2" d="m175.36 171.22l-29.39 0-14.69 32.33-19.1 0-10.29 26.45 19.1 0-10.29 27.92c-1.47 4.41 0 5.88 4.41 5.88l38.21 0 8.82-23.51-13.22 0c-1.47 0-2.94 0-2.94-1.47l2.94-8.82 16.16 0 10.29-26.45-16.16 0 14.69-32.33 1.47 0zm8.82 33.8l27.92 0c0 0-1.47 2.94-1.47 4.41 4.41-5.88 5.88-2.94 19.1-2.94l-10.29 24.98-11.76 0c-1.47 0-2.94 1.47-4.41 2.94l-13.22 30.86-29.39 0 22.04-58.78 1.47-1.47zm110.21 0l-48.49 0c-7.35 1.47-11.76 4.41-14.69 10.29l-14.69 38.21c-2.94 5.88-1.47 8.82 2.94 10.29l52.9 0c7.35-2.94 11.76-8.82 11.76-17.63l-22.04 0-4.41 0c0 1.47-1.47 5.88-2.94 7.35l-7.35 0 5.88-16.16 8.82 0 26.45 0 10.29-26.45c0-4.41 0-5.88-4.41-5.88zm-32.33 26.45l-4.41 0c-1.47-4.41 1.47-7.35 4.41-8.82 1.47 0 1.47 0 2.94 0 2.94 0 1.47 7.35-1.47 8.82l-1.47 0zm85.23-27.92l-4.41 2.94c0-1.47-1.47-1.47-1.47-1.47l-13.22 0-7.35 0c-7.35 0-13.22 1.47-14.69 5.88l-19.1 44.08c-1.47 5.88 1.47 8.82 5.88 8.82l22.04 0c2.94-1.47 5.88-1.47 7.35-4.41l1.47 4.41 26.45 0 23.51-60.25-27.92 0 1.47 0zm-11.76 20.57l-7.35 19.1 0 0c0 1.47-2.94 2.94-4.41 2.94-1.47 0-2.94-1.47-1.47-2.94l7.35-17.63 0-1.47c1.47-1.47 2.94-2.94 4.41-2.94s2.94 1.47 1.47 2.94l0 0zm45.55-19.1l30.86 0 1.47 1.47 2.94-1.47 32.33 0 1.47 2.94 2.94-2.94 30.86 0c2.94 0 2.94 2.94 1.47 5.88l-20.57 52.9-30.86 0c8.82-27.92 17.63-41.14 11.76-41.14-7.35 0-8.82 13.22-20.57 41.14l-30.86 0c8.82-27.92 19.1-41.14 11.76-41.14-5.88 0-7.35 13.22-19.1 41.14l-30.86 0 23.51-58.78 1.47 0zm-155.76 64.66l67.59 0-8.82 20.57-38.21 0-8.82 19.1 27.92 0-7.35 19.1-29.39 0-13.22 32.33-30.86 0 38.21-92.58 2.94 1.47zm73.47 0l29.39 0-36.74 92.58-29.39 0 36.74-92.58zm88.17 27.92c-1.47-1.47-5.88-2.94-8.82-2.94l-38.21 0c-4.41 0-8.82 0-13.22 2.94-2.94 1.47-5.88 7.35-5.88 10.29l-16.16 41.14c-2.94 5.88-1.47 13.22 5.88 13.22l41.14 0c2.94 0 10.29 1.47 13.23-1.47 2.94-1.47 4.41-7.35 5.88-10.29l17.63-42.61c1.47-4.41 4.41-8.82 1.47-10.29l-2.94 0zm-35.27 19.1l-7.35 22.04c0 0 0 1.47-1.47 1.47-1.47 1.47-2.94 2.94-5.88 2.94-2.94 0-4.41-1.47-2.94-4.41l7.35-22.04c0 0 0-1.47 0-1.47 1.47-1.47 2.94-2.94 5.88-2.94 2.94 0 2.94 1.47 2.94 4.41l1.47 0zm-233.64-144.01l-8.82 27.92-27.92 0 1.47-5.88-5.88 0-1.47 5.88 19.1 29.39c0 0-10.29 27.92-11.76 30.86s-2.94 2.94-5.88 2.94c-4.41 0-61.72 0-61.72 0l11.76-30.86 26.45 0-1.47 5.88 5.88 0 1.47-4.41c0 0-16.16-29.39-16.16-30.86 0-1.47 0-4.41 0-7.35 0-1.47 7.35-19.1 7.35-19.1 1.47-1.47 4.41-4.41 5.88-4.41s63.19 1.47 63.19 1.47l-1.47-1.47zm72 0l-10.29 27.92 311.52 0 11.76-27.92-311.52 0-1.47 0zm23.51 96.98l-201.31 0-10.29 27.92 201.32 0 11.76-27.92-1.47 0zm66.13-201.31c69.06 0 129.31 36.74 161.64 91.11l23.51 0c-35.27-66.13-104.33-111.68-185.15-111.68-80.82 0-149.88 45.55-185.15 111.68l23.51 0c32.33-54.37 92.58-91.11 161.64-91.11zm0 374.71c-85.23 0-155.76-55.84-179.27-133.72l-23.51 0c23.51 89.64 105.8 155.76 202.78 155.76 116.09 0 210.13-94.04 210.13-210.13 0-7.35 0-14.69-1.47-22.04l-24.98 63.19c-19.1 83.76-94.04 146.95-182.21 146.95l-1.47 0z" fill="rgb(19, 17, 12)"/>
</svg>
